{"glyphs":{":":{"x_min":0,"x_max":200,"ha":200,"o":"m 52 319 q 52 341 65 354 q 78 366 101 366 q 124 366 136 354 q 149 341 149 319 q 149 296 136 283 q 124 270 101 270 q 79 270 66 284 q 52 297 52 319 z m 52 38 q 52 60 65 72 q 78 85 101 85 q 124 85 136 72 q 149 60 149 38 q 149 15 136 2 q 124 -11 101 -11 q 79 -11 66 2 q 52 16 52 38 z"},"$":{"x_min":0,"x_max":507,"ha":507,"o":"m 277 -9 l 277 -108 q 277 -115 265 -115 q 253 -115 253 -108 l 253 -12 l 236 -12 q 196 -12 157 -2 q 118 7 89 25 q 84 28 82 32 q 80 36 80 44 l 70 187 q 69 191 74 192 q 80 193 81 189 q 103 116 145 63 q 187 10 253 7 l 253 283 l 225 300 q 178 330 150 352 q 123 373 104 404 q 85 436 85 478 q 85 547 134 588 q 183 628 253 635 l 253 719 q 253 723 256 725 q 260 727 265 727 q 270 727 274 725 q 277 723 277 719 l 277 636 l 278 636 q 345 636 399 613 q 414 607 414 595 l 419 470 q 419 466 414 465 q 409 464 408 468 q 398 517 366 564 q 335 610 277 618 l 277 358 l 294 348 q 344 317 374 294 q 403 272 424 239 q 445 206 445 161 q 445 95 400 48 q 355 1 277 -9 z m 253 373 l 253 619 q 205 617 180 588 q 154 558 154 513 q 154 468 180 436 q 205 405 253 373 z m 370 116 q 370 166 346 201 q 321 236 277 267 l 277 8 q 318 12 344 38 q 370 64 370 116 z"},"?":{"x_min":0,"x_max":332,"ha":332,"o":"m 122 565 q 119 542 110 528 q 101 513 78 513 q 59 513 49 524 q 39 536 39 551 q 39 582 75 604 q 111 625 163 625 q 224 625 264 594 q 304 563 304 505 q 304 474 292 451 q 281 428 268 416 q 255 403 221 372 q 188 341 174 312 q 160 283 160 248 q 160 231 165 194 l 165 193 q 165 191 159 190 q 153 188 152 191 q 141 217 134 252 q 126 288 126 311 q 126 342 138 362 q 149 382 172 407 q 197 433 210 456 q 223 480 223 518 q 223 559 206 584 q 189 610 161 610 q 140 610 132 598 q 125 586 122 565 z m 100 38 q 100 60 113 72 q 126 85 149 85 q 172 85 184 72 q 197 60 197 38 q 197 15 184 2 q 172 -11 149 -11 q 127 -11 114 2 q 100 16 100 38 z"},"<":{"x_min":0,"x_max":407,"ha":407,"o":"m 377 43 q 377 22 370 25 l 36 173 q 31 176 31 190 q 31 205 36 207 l 370 354 q 373 356 375 350 q 377 345 377 336 q 377 315 370 311 l 85 190 l 370 69 q 377 66 377 43 z"},"'":{"x_min":0,"x_max":143,"ha":143,"o":"m 38 608 q 37 619 65 630 q 93 640 113 640 q 126 640 125 635 l 69 366 q 67 364 62 363 q 56 362 56 365 z"},"=":{"x_min":0,"x_max":468,"ha":468,"o":"m 29 261 q 29 268 30 274 q 31 280 33 280 l 434 280 q 436 280 438 274 q 439 267 439 260 q 439 252 438 246 q 436 239 434 239 l 34 239 q 32 239 30 246 q 29 253 29 261 z m 29 121 q 29 128 30 134 q 31 140 33 140 l 434 140 q 436 140 438 134 q 439 127 439 120 q 439 112 438 106 q 436 99 434 99 l 34 99 q 32 99 30 106 q 29 113 29 121 z"},"a":{"x_min":0,"x_max":490,"ha":490,"o":"m 484 61 q 487 61 488 56 q 490 51 487 50 l 364 -10 q 362 -11 359 -11 q 351 -11 342 11 q 334 33 332 67 q 297 31 261 10 q 225 -11 181 -11 q 119 -11 77 34 q 35 80 35 162 q 35 234 68 288 q 102 342 154 370 q 207 399 262 399 q 315 399 359 370 q 379 380 390 396 q 391 397 393 397 q 395 397 398 396 q 400 394 400 393 l 400 107 q 400 75 408 61 q 415 47 433 47 q 446 47 482 60 z m 332 84 l 332 292 q 332 329 304 354 q 276 379 237 379 q 181 379 147 327 q 113 275 113 193 q 113 118 142 74 q 170 29 220 29 q 273 29 332 84 z"},"L":{"x_min":0,"x_max":537,"ha":537,"o":"m 194 85 q 194 57 200 44 q 205 32 220 28 q 235 23 267 23 l 352 23 q 415 23 456 60 q 498 98 512 162 q 512 165 518 164 q 523 164 523 161 q 514 73 514 15 q 514 7 510 4 q 507 0 499 0 l 33 0 q 31 0 31 6 q 31 12 33 12 q 69 12 86 17 q 102 22 108 36 q 114 51 114 81 l 114 544 q 114 574 108 588 q 102 602 86 608 q 69 613 33 613 q 31 613 31 619 q 31 625 33 625 l 83 624 q 127 622 154 622 q 181 622 225 624 l 275 625 q 277 625 277 619 q 277 613 275 613 q 240 613 223 608 q 206 602 200 588 q 194 573 194 543 z"},"3":{"x_min":0,"x_max":435,"ha":435,"o":"m 391 175 q 391 120 366 78 q 342 35 298 12 q 255 -12 200 -12 q 106 -12 37 63 l 36 65 q 36 69 40 72 q 45 74 47 71 q 71 46 106 33 q 141 20 175 20 q 243 20 276 61 q 308 102 308 167 q 308 321 134 321 q 130 321 130 328 q 130 335 134 335 q 218 335 253 370 q 288 406 288 469 q 288 530 259 562 q 230 593 180 593 q 139 593 102 572 q 65 552 48 514 q 48 513 46 513 q 43 513 40 515 q 36 517 37 519 q 59 573 106 604 q 152 636 213 636 q 283 636 324 596 q 366 557 366 497 q 366 444 334 400 q 301 355 245 334 q 314 330 352 284 q 391 239 391 175 z"},";":{"x_min":0,"x_max":227,"ha":227,"o":"m 54 319 q 54 341 67 354 q 80 366 103 366 q 126 366 138 354 q 151 341 151 319 q 151 296 138 283 q 126 270 103 270 q 81 270 68 284 q 54 297 54 319 z m 173 -10 q 173 -52 154 -88 q 136 -123 99 -159 q 98 -160 96 -160 q 93 -160 91 -157 q 89 -154 91 -152 q 140 -102 140 -34 q 140 -6 130 7 q 121 -8 97 -8 q 77 -8 66 4 q 54 17 54 37 q 54 59 68 70 q 81 82 106 82 q 137 82 155 58 q 173 34 173 -10 z"},"J":{"x_min":0,"x_max":328,"ha":328,"o":"m 286 613 q 255 613 241 607 q 227 601 222 586 q 217 572 217 542 l 217 -20 q 217 -124 168 -184 q 119 -243 28 -243 q -7 -243 -28 -230 q -49 -217 -49 -195 q -49 -178 -39 -167 q -29 -156 -10 -156 q 10 -156 20 -166 q 31 -175 41 -194 q 50 -210 56 -216 q 63 -223 74 -223 q 105 -223 120 -184 q 136 -145 136 -57 l 136 544 q 136 574 129 588 q 122 602 102 608 q 83 613 42 613 q 40 613 40 619 q 40 625 42 625 l 101 624 q 147 622 175 622 q 201 622 241 624 l 286 625 q 288 625 288 619 q 288 613 286 613 z"},"V":{"x_min":0,"x_max":664,"ha":664,"o":"m 668 613 q 596 613 560 522 l 356 1 q 355 -3 345 -3 q 335 -3 334 1 l 83 542 q 65 580 46 596 q 28 613 1 613 q -2 613 -2 619 q -2 625 1 625 l 32 624 q 58 622 81 622 q 136 622 186 624 q 202 625 227 625 q 230 625 230 619 q 230 613 227 613 q 165 613 165 574 q 165 560 174 539 l 372 109 l 536 526 q 544 548 544 564 q 544 613 468 613 q 465 613 465 619 q 465 625 468 625 l 513 624 q 549 622 579 622 q 600 622 626 624 l 668 625 q 671 625 671 619 q 671 613 668 613 z"},"\"":{"x_min":0,"x_max":289,"ha":289,"o":"m 38 608 q 37 619 65 630 q 93 640 113 640 q 126 640 125 635 l 69 366 q 67 364 62 363 q 56 362 56 365 z m 183 608 q 182 619 210 630 q 238 640 258 640 q 271 640 270 635 l 214 366 q 212 364 206 363 q 201 362 201 365 z"},"7":{"x_min":0,"x_max":429,"ha":429,"o":"m 169 0 l 112 0 q 106 0 103 4 q 100 7 102 12 l 343 550 q 348 557 339 557 q 190 557 134 553 q 78 549 62 536 q 45 524 35 489 q 34 486 30 486 q 27 486 24 488 q 22 489 23 491 l 61 651 q 62 654 68 654 q 74 653 73 650 q 72 646 72 640 q 72 631 82 628 q 91 625 120 625 l 385 625 q 389 625 392 620 q 395 615 393 612 l 191 22 q 186 9 182 4 q 178 0 169 0 z"},"S":{"x_min":0,"x_max":499,"ha":499,"o":"m 294 348 q 344 317 374 294 q 403 272 424 239 q 445 206 445 161 q 445 112 420 72 q 394 33 346 10 q 299 -12 236 -12 q 196 -12 157 -2 q 118 7 89 25 q 84 28 82 32 q 80 36 80 44 l 70 187 q 69 191 74 192 q 80 193 81 189 q 105 113 148 60 q 191 7 260 7 q 307 7 338 32 q 370 58 370 116 q 370 160 350 193 q 330 226 302 248 q 273 271 225 300 q 178 330 150 352 q 123 373 104 404 q 85 436 85 478 q 85 529 112 565 q 140 601 184 618 q 229 636 278 636 q 345 636 399 613 q 414 607 414 595 l 419 470 q 419 466 414 465 q 409 464 408 468 q 397 522 361 570 q 325 619 259 619 q 209 619 182 589 q 154 559 154 513 q 154 475 173 446 q 192 418 219 398 q 246 377 294 348 z"},"}":{"x_min":0,"x_max":283,"ha":283,"o":"m 178 80 q 178 -6 167 -47 q 156 -88 126 -102 q 96 -117 33 -117 q 29 -117 29 -111 q 29 -105 33 -105 q 66 -105 84 -78 q 101 -50 103 1 q 105 123 111 172 q 117 222 139 252 q 161 281 214 305 q 160 328 138 356 q 117 385 111 434 q 105 484 103 607 q 101 658 84 686 q 66 713 33 713 q 29 713 29 719 q 29 725 33 725 q 96 725 126 710 q 155 696 166 656 q 178 615 178 529 q 178 435 192 376 q 207 317 251 311 q 254 311 254 304 q 254 298 251 298 q 207 292 192 234 q 178 175 178 80 z"},"Z":{"x_min":0,"x_max":598,"ha":598,"o":"m 438 600 q 441 605 440 606 q 440 608 433 608 q 276 608 212 602 q 148 595 118 572 q 89 549 66 491 q 64 489 62 489 q 59 489 56 490 q 53 492 54 493 l 94 655 q 94 656 98 656 q 108 656 106 653 q 105 650 105 645 q 105 633 116 629 q 128 625 163 625 l 528 625 q 533 625 536 620 q 538 615 535 612 l 159 27 q 155 22 156 20 q 157 19 163 19 l 401 19 q 464 19 503 50 q 542 82 553 141 q 554 143 559 143 q 564 143 564 141 l 550 8 q 550 5 548 2 q 545 -2 541 -2 q 392 0 62 0 q 58 0 56 4 q 54 9 57 13 z"},"x":{"x_min":0,"x_max":439,"ha":439,"o":"m 430 0 l 397 1 q 385 2 363 2 l 296 1 q 282 0 256 0 q 253 0 253 6 q 253 12 256 12 q 286 12 286 25 q 286 33 274 51 l 201 161 l 149 86 q 128 54 128 38 q 128 12 181 12 q 184 12 184 6 q 184 0 181 0 q 154 0 141 1 l 81 2 l 44 1 q 33 0 10 0 q 8 0 8 6 q 8 12 10 12 q 38 12 70 33 q 102 54 129 92 l 190 177 l 106 303 q 83 339 58 356 q 34 374 15 374 q 13 374 13 380 q 13 386 15 386 q 36 386 46 385 l 77 384 l 144 385 q 158 386 184 386 q 186 386 186 380 q 186 374 184 374 q 169 374 162 371 q 155 368 155 361 q 155 353 167 335 l 233 236 l 276 300 q 298 333 298 349 q 298 362 285 368 q 272 374 244 374 q 242 374 242 380 q 242 386 244 386 q 271 386 285 385 l 345 384 l 382 385 q 393 386 416 386 q 418 386 418 380 q 418 374 416 374 q 388 374 357 354 q 326 333 297 294 l 243 220 l 334 83 q 358 46 384 29 q 409 12 430 12 q 432 12 432 6 q 432 0 430 0 z"},")":{"x_min":0,"x_max":309,"ha":309,"o":"m 35 -117 q 33 -118 31 -116 q 29 -113 31 -111 q 102 -40 135 63 q 168 166 168 304 q 168 442 135 545 q 102 648 31 719 q 29 720 31 723 q 33 726 35 725 q 137 671 194 558 q 251 446 251 304 q 251 162 194 49 q 137 -64 35 -117 z"},"&":{"x_min":0,"x_max":703,"ha":703,"o":"m 706 0 l 580 0 q 541 0 456 64 q 377 -12 258 -12 q 194 -12 150 8 q 107 29 86 62 q 64 96 64 135 q 64 190 99 231 q 134 272 201 320 q 184 344 171 370 q 142 431 142 479 q 142 525 164 563 q 185 601 224 624 q 264 646 316 646 q 369 646 404 622 q 439 598 439 547 q 439 509 420 478 q 400 447 372 424 q 344 401 294 367 l 274 354 q 344 244 484 135 q 510 187 510 253 q 510 296 494 316 q 479 337 436 337 q 433 337 432 343 q 432 349 436 349 l 654 350 q 658 350 658 344 q 658 338 654 338 q 621 338 605 332 q 589 325 582 312 q 575 300 567 273 q 539 178 502 121 q 564 76 617 48 q 670 20 706 12 q 710 11 710 6 q 709 0 706 0 z m 265 368 q 312 406 338 444 q 365 482 365 529 q 365 573 342 598 q 319 623 282 623 q 211 623 211 535 q 211 457 265 368 z m 442 75 l 416 96 q 358 141 304 196 q 249 252 210 307 q 177 278 158 246 q 140 215 140 177 q 140 136 162 101 q 184 66 223 45 q 262 24 313 24 q 389 24 442 75 z"},"_":{"x_min":0,"x_max":398,"ha":398,"o":"m 29 -55 q 29 -48 30 -42 q 32 -35 33 -35 l 364 -35 q 366 -35 368 -42 q 369 -49 369 -57 q 369 -65 368 -72 q 366 -78 364 -78 l 34 -78 q 32 -78 30 -70 q 29 -63 29 -55 z"},"v":{"x_min":0,"x_max":436,"ha":436,"o":"m 438 374 q 411 374 392 356 q 373 338 356 295 l 232 1 q 230 -4 221 -4 q 212 -4 210 1 l 65 303 q 45 346 30 360 q 16 374 -4 374 q -7 374 -7 380 q -7 386 -4 386 q 15 386 26 385 l 73 384 l 143 385 q 158 386 185 386 q 188 386 188 380 q 188 374 185 374 q 126 374 126 351 q 126 343 130 335 l 248 92 l 334 299 q 341 320 341 330 q 341 374 266 374 q 264 374 264 380 q 264 386 266 386 q 293 386 307 385 l 367 384 l 404 385 q 415 386 438 386 q 440 386 440 380 q 440 374 438 374 z"},"O":{"x_min":0,"x_max":766,"ha":766,"o":"m 49 312 q 49 415 101 488 q 153 562 234 599 q 316 636 401 636 q 496 636 568 592 q 640 547 678 474 q 717 401 717 319 q 717 228 669 152 q 621 76 540 32 q 460 -12 366 -12 q 273 -12 200 32 q 128 75 88 150 q 49 224 49 312 z m 626 291 q 626 384 594 457 q 561 530 500 571 q 440 612 360 612 q 256 612 198 542 q 140 471 140 347 q 140 252 173 175 q 206 98 266 54 q 325 10 401 10 q 465 10 516 43 q 567 76 596 140 q 626 203 626 291 z"},"(":{"x_min":0,"x_max":309,"ha":309,"o":"m 274 725 q 276 726 278 724 q 280 721 278 719 q 207 648 174 545 q 141 442 141 304 q 141 166 174 63 q 207 -40 278 -111 q 280 -112 278 -115 q 276 -118 274 -117 q 172 -63 115 50 q 58 162 58 304 q 58 446 115 559 q 172 672 274 725 z"},"C":{"x_min":0,"x_max":669,"ha":669,"o":"m 590 604 q 598 600 600 596 q 603 591 605 580 l 616 459 q 616 456 611 456 q 606 455 605 458 q 579 536 520 574 q 461 613 378 613 q 305 613 251 580 q 197 546 168 485 q 140 424 140 344 q 140 251 176 173 q 212 95 274 50 q 335 4 408 4 q 552 4 614 169 q 614 172 618 172 q 621 172 624 171 q 626 170 626 168 l 612 47 q 610 35 608 32 q 605 28 596 24 q 504 -12 408 -12 q 287 -12 206 36 q 125 85 87 160 q 49 235 49 317 q 49 410 100 482 q 152 555 236 596 q 321 636 417 636 q 463 636 512 628 q 561 619 590 604 z"},"W":{"x_min":0,"x_max":915,"ha":915,"o":"m 919 613 q 883 613 854 590 q 824 568 811 522 l 661 1 q 661 -3 650 -3 q 640 -3 639 1 l 447 500 l 295 1 q 295 -3 284 -3 q 275 -3 272 1 l 83 542 q 69 583 50 598 q 32 613 1 613 q -2 613 -2 619 q -2 625 1 625 l 32 624 q 58 622 81 622 q 138 622 192 624 q 208 625 232 625 q 235 625 235 619 q 235 613 232 613 q 163 613 163 569 q 163 557 169 539 l 310 135 l 460 625 q 462 628 472 628 q 482 628 483 625 l 673 130 l 785 522 q 790 542 790 554 q 790 613 701 613 q 699 613 699 619 q 699 625 701 625 l 754 624 q 798 622 831 622 q 850 622 878 624 l 919 625 q 922 625 922 619 q 922 613 919 613 z"},"A":{"x_min":0,"x_max":706,"ha":706,"o":"m 705 0 q 686 0 644 2 q 604 4 585 4 q 562 4 528 2 q 494 0 477 0 q 473 0 473 6 q 473 12 477 12 q 511 12 526 18 q 541 25 541 42 q 541 59 526 89 l 414 321 l 230 321 l 148 132 q 134 99 134 77 q 134 12 231 12 q 236 12 236 6 q 236 0 231 0 q 213 0 179 2 q 141 4 113 4 q 87 4 51 2 q 19 0 -1 0 q -5 0 -5 6 q -5 12 -1 12 q 27 12 46 23 q 66 34 84 61 q 102 88 125 141 l 338 632 q 339 635 345 636 q 351 636 352 632 l 593 137 q 627 64 651 38 q 675 12 705 12 q 709 12 709 6 q 709 0 705 0 z m 239 344 l 403 344 l 317 524 z"},"f":{"x_min":0,"x_max":305,"ha":305,"o":"m 436 671 q 436 653 424 644 q 412 634 396 634 q 380 634 370 642 q 361 649 351 665 q 338 686 322 696 q 307 707 283 707 q 229 707 197 641 q 165 575 165 439 l 165 375 q 228 378 288 385 q 291 385 293 378 q 295 371 295 362 q 295 354 292 345 q 288 336 285 337 q 229 350 165 352 l 165 81 q 165 50 172 36 q 178 22 198 17 q 218 12 261 12 q 264 12 264 6 q 264 0 261 0 l 194 1 q 173 2 130 2 l 72 1 q 57 0 30 0 q 27 0 27 6 q 27 12 30 12 q 59 12 72 17 q 86 22 91 36 q 96 51 96 81 l 96 306 q 96 330 91 341 q 86 352 72 356 q 58 359 26 359 q 23 359 23 366 q 23 373 26 373 q 65 373 80 382 q 94 392 95 418 q 100 581 155 654 q 210 726 319 726 q 372 726 404 710 q 436 695 436 671 z"},"Q":{"x_min":0,"x_max":766,"ha":766,"o":"m 746 -167 q 748 -167 750 -172 q 751 -176 749 -177 q 701 -189 665 -189 q 594 -189 515 -142 q 436 -95 380 -12 l 366 -12 q 273 -12 200 32 q 128 75 88 150 q 49 224 49 312 q 49 415 101 488 q 153 562 234 599 q 316 636 401 636 q 496 636 568 592 q 640 547 678 474 q 717 401 717 319 q 717 246 686 182 q 654 118 599 72 q 544 26 475 4 q 516 -72 582 -120 q 649 -169 709 -169 q 727 -169 745 -167 z m 401 10 q 465 10 516 43 q 567 76 596 140 q 626 203 626 291 q 626 384 594 457 q 561 530 500 571 q 440 612 360 612 q 256 612 198 542 q 140 471 140 347 q 140 252 173 175 q 206 98 266 54 q 325 10 401 10 z"},"w":{"x_min":0,"x_max":671,"ha":671,"o":"m 672 374 q 646 374 626 356 q 607 338 590 295 l 476 1 q 475 -3 465 -3 q 456 -3 453 1 l 321 286 l 218 1 q 217 -3 207 -3 q 198 -3 195 1 l 65 303 q 47 346 32 360 q 17 374 -4 374 q -7 374 -7 380 q -7 386 -4 386 q 15 386 26 385 l 73 384 l 138 385 q 153 386 179 386 q 182 386 182 380 q 182 374 179 374 q 153 374 138 368 q 124 363 124 350 q 124 343 128 335 l 231 101 l 334 386 q 335 390 345 390 q 355 390 356 386 l 491 96 l 568 299 q 575 320 575 330 q 575 374 501 374 q 499 374 499 380 q 499 386 501 386 q 528 386 542 385 l 602 384 l 640 385 q 650 386 672 386 q 675 386 675 380 q 675 374 672 374 z"},"-":{"x_min":0,"x_max":323,"ha":323,"o":"m 27 187 q 27 207 30 207 l 291 254 q 293 255 294 248 q 296 241 296 232 q 296 224 294 217 q 293 210 291 209 l 32 162 q 30 161 28 170 q 27 178 27 187 z"},"E":{"x_min":0,"x_max":542,"ha":542,"o":"m 486 154 q 489 154 492 152 q 494 151 494 150 q 484 78 484 15 q 484 7 481 4 q 478 0 469 0 l 43 0 q 40 0 40 6 q 40 12 43 12 q 79 12 95 17 q 111 22 117 36 q 123 51 123 81 l 123 544 q 123 574 117 588 q 111 602 94 608 q 78 613 43 613 q 40 613 40 619 q 40 625 43 625 l 451 625 q 461 625 461 616 l 463 490 q 463 487 458 486 q 452 486 451 489 q 444 544 412 572 q 380 601 328 601 l 277 601 q 233 601 218 588 q 203 576 203 540 l 203 337 l 313 337 q 364 337 388 354 q 412 372 412 409 q 412 411 418 411 q 423 411 423 409 l 422 325 l 423 280 q 425 248 425 230 q 425 228 419 228 q 413 228 413 230 q 413 273 388 294 q 364 314 310 314 l 203 314 l 203 85 q 203 49 216 36 q 230 23 271 23 l 336 23 q 393 23 430 56 q 468 90 482 152 q 482 154 486 154 z"},"s":{"x_min":0,"x_max":338,"ha":338,"o":"m 193 232 q 229 213 248 200 q 268 186 282 165 q 296 144 296 113 q 296 62 258 26 q 219 -11 152 -11 q 100 -11 54 18 q 48 24 48 30 l 46 115 q 46 118 52 118 q 57 119 58 116 q 76 66 108 37 q 141 8 181 8 q 209 8 224 22 q 240 36 240 63 q 240 91 228 110 q 216 130 198 142 q 181 153 151 169 q 118 185 98 198 q 79 211 66 232 q 52 253 52 285 q 52 341 93 370 q 134 398 191 398 q 230 398 267 383 q 276 380 276 372 q 276 350 275 338 l 274 293 q 274 291 268 291 q 262 291 262 293 q 262 313 246 333 q 230 353 206 366 q 181 378 156 378 q 133 378 120 366 q 106 355 106 329 q 106 296 128 275 q 151 254 193 232 z"},">":{"x_min":0,"x_max":407,"ha":407,"o":"m 376 189 q 376 175 371 172 l 37 25 q 34 24 32 30 q 30 35 30 43 q 30 51 32 59 q 34 67 37 68 l 322 189 l 37 310 q 34 312 32 320 q 30 328 30 336 q 30 345 32 350 q 34 356 37 354 l 371 206 q 376 204 376 189 z"},"l":{"x_min":0,"x_max":261,"ha":261,"o":"m 38 12 q 75 12 86 26 q 98 39 98 81 l 99 595 q 99 631 92 646 q 85 662 68 662 q 51 662 25 649 l 23 649 q 20 649 18 654 q 16 659 19 660 l 153 724 l 157 725 q 161 725 165 722 q 169 719 169 715 l 169 81 q 169 39 180 26 q 192 12 228 12 q 232 12 232 6 q 232 0 228 0 q 205 0 191 1 l 133 2 l 77 1 q 63 0 38 0 q 36 0 36 6 q 36 12 38 12 z"},"8":{"x_min":0,"x_max":492,"ha":492,"o":"m 454 162 q 454 110 426 70 q 399 30 352 8 q 304 -13 246 -13 q 183 -13 138 10 q 92 33 68 72 q 44 112 44 160 q 44 222 83 273 q 122 324 180 355 q 141 384 120 416 q 99 449 99 494 q 99 540 122 572 q 145 604 182 620 q 219 636 259 636 q 324 636 366 600 q 407 564 407 510 q 407 467 382 428 q 358 389 316 358 q 382 317 418 274 q 454 231 454 162 z m 163 534 q 163 496 180 467 q 198 438 225 418 q 252 397 298 369 q 336 425 336 498 q 336 557 310 588 q 284 618 241 618 q 205 618 184 594 q 163 571 163 534 z m 384 131 q 384 177 364 211 q 343 245 314 267 q 284 289 234 320 l 196 344 q 126 286 126 183 q 126 105 166 56 q 205 6 270 6 q 324 6 354 40 q 384 73 384 131 z"},"\\":{"x_min":0,"x_max":344,"ha":344,"o":"m 26 717 q 24 722 44 728 q 64 734 66 730 l 318 -152 q 320 -156 300 -162 q 279 -168 277 -164 z"},"e":{"x_min":0,"x_max":411,"ha":411,"o":"m 371 59 q 374 59 376 56 q 379 52 377 49 q 342 17 306 2 q 269 -12 227 -12 q 167 -12 124 14 q 80 41 58 85 q 35 129 35 180 q 35 239 64 288 q 92 338 142 366 q 193 395 254 395 q 310 395 341 368 q 372 342 372 296 q 372 271 361 271 l 313 271 l 116 269 q 112 249 112 220 q 112 134 154 81 q 195 28 268 28 q 326 28 370 59 z m 119 285 l 291 289 q 290 329 271 352 q 252 375 219 375 q 182 375 156 352 q 130 328 119 285 z"},"b":{"x_min":0,"x_max":512,"ha":512,"o":"m 476 214 q 476 141 445 90 q 414 39 364 13 q 314 -13 258 -13 q 181 -13 120 32 l 39 -5 l 37 -5 q 33 -5 32 -2 q 32 2 35 4 q 64 24 77 45 q 90 66 90 103 l 90 594 q 90 630 83 646 q 76 662 58 662 q 44 662 15 649 l 13 649 q 10 649 8 654 q 7 659 10 660 l 142 724 l 147 725 q 150 725 154 722 q 158 719 158 715 l 158 319 q 192 355 230 377 q 268 399 314 399 q 358 399 395 378 q 432 357 454 316 q 476 274 476 214 z m 399 178 q 399 267 366 314 q 332 360 276 360 q 222 360 158 302 l 158 142 q 158 95 179 64 q 200 34 230 20 q 259 6 287 6 q 340 6 370 51 q 399 96 399 178 z"},"%":{"x_min":0,"x_max":574,"ha":574,"o":"m 24 433 q 24 486 60 523 q 96 560 150 560 q 204 560 238 522 q 273 485 273 430 q 273 376 238 340 q 203 303 150 303 q 96 303 60 340 q 24 378 24 433 z m 105 -7 q 100 -7 90 0 q 80 6 82 9 l 452 553 l 454 554 q 459 554 470 546 q 480 539 478 537 l 107 -6 z m 207 423 q 207 547 144 547 q 112 547 101 518 q 90 489 90 436 q 90 316 157 316 q 187 316 197 343 q 207 370 207 423 z m 301 125 q 301 178 337 216 q 373 253 427 253 q 481 253 516 215 q 550 177 550 123 q 550 68 516 32 q 481 -5 427 -5 q 373 -5 337 32 q 301 70 301 125 z m 484 116 q 484 239 421 239 q 390 239 378 210 q 367 181 367 129 q 367 73 382 41 q 397 9 434 9 q 464 9 474 36 q 484 62 484 116 z"},"m":{"x_min":0,"x_max":768,"ha":768,"o":"m 748 0 q 723 0 709 1 l 653 2 l 598 1 q 583 0 559 0 q 557 0 557 6 q 557 12 559 12 q 596 12 608 26 q 620 39 620 81 l 620 235 q 620 293 600 320 q 579 348 537 348 q 508 348 479 333 q 450 318 428 292 l 428 279 l 428 81 q 428 39 440 26 q 451 12 488 12 q 491 12 491 6 q 491 0 488 0 q 464 0 449 1 l 394 2 l 339 1 q 324 0 300 0 q 297 0 297 6 q 297 12 300 12 q 336 12 348 26 q 360 39 360 81 l 360 235 q 360 293 340 320 q 320 348 278 348 q 250 348 222 334 q 194 320 171 295 l 171 81 q 171 39 182 26 q 194 12 231 12 q 234 12 234 6 q 234 0 231 0 q 207 0 192 1 l 137 2 l 81 1 q 67 0 43 0 q 40 0 40 6 q 40 12 43 12 q 79 12 90 26 q 102 39 102 81 l 102 276 q 102 309 94 324 q 87 338 69 338 q 50 338 16 324 l 14 324 q 11 324 10 329 q 8 334 11 335 l 135 394 q 137 395 141 395 q 151 395 160 372 q 170 350 171 314 q 240 397 318 397 q 363 397 391 374 q 419 352 426 309 q 499 397 578 397 q 631 397 660 366 q 688 335 688 274 l 688 81 q 688 52 692 38 q 697 23 710 18 q 722 12 748 12 q 751 12 751 6 q 751 0 748 0 z"},"#":{"x_min":0,"x_max":526,"ha":526,"o":"m 468 296 q 468 288 466 282 q 465 275 463 275 l 393 275 l 365 118 l 428 118 q 430 118 432 112 q 433 105 433 97 q 433 89 432 82 q 430 76 428 76 l 358 76 l 330 -80 q 330 -83 321 -83 q 311 -83 300 -80 q 289 -78 290 -75 l 317 76 l 171 76 l 143 -80 q 143 -83 134 -83 q 124 -83 112 -80 q 101 -78 102 -75 l 129 76 l 63 76 q 61 76 60 83 q 58 90 58 98 q 58 105 60 112 q 61 118 62 118 l 136 118 l 164 275 l 98 275 q 96 275 94 282 q 93 289 93 297 q 93 304 94 310 q 95 316 97 316 l 171 316 l 201 482 q 201 487 222 482 q 242 478 241 474 l 213 316 l 359 316 l 388 482 q 388 487 408 482 q 429 478 428 474 l 400 316 l 463 316 q 465 316 466 310 q 468 303 468 296 z m 324 118 l 352 275 l 206 275 l 178 118 z"},",":{"x_min":0,"x_max":222,"ha":222,"o":"m 169 -10 q 169 -52 150 -88 q 132 -123 95 -159 q 94 -160 92 -160 q 89 -160 87 -157 q 85 -154 87 -152 q 136 -102 136 -34 q 136 -6 126 7 q 117 -8 93 -8 q 73 -8 62 4 q 50 17 50 37 q 50 59 64 70 q 77 82 102 82 q 133 82 151 58 q 169 34 169 -10 z"},"n":{"x_min":0,"x_max":520,"ha":520,"o":"m 500 0 q 476 0 461 1 l 406 2 l 351 1 q 336 0 312 0 q 309 0 309 6 q 309 12 312 12 q 348 12 360 26 q 371 39 371 81 l 371 237 q 371 295 350 322 q 329 349 283 349 q 255 349 225 335 q 195 321 171 296 l 171 81 q 171 39 182 26 q 194 12 231 12 q 234 12 234 6 q 234 0 231 0 q 207 0 192 1 l 137 2 l 81 1 q 67 0 43 0 q 40 0 40 6 q 40 12 43 12 q 79 12 90 26 q 102 39 102 81 l 102 276 q 102 309 94 324 q 87 338 69 338 q 50 338 16 324 l 14 324 q 11 324 10 329 q 8 334 11 335 l 135 394 q 137 395 141 395 q 151 395 160 372 q 170 350 171 314 q 244 399 324 399 q 379 399 410 366 q 440 334 440 276 l 440 81 q 440 39 452 26 q 463 12 500 12 q 503 12 503 6 q 503 0 500 0 z"},"h":{"x_min":0,"x_max":502,"ha":502,"o":"m 482 0 q 457 0 443 1 l 388 2 l 331 1 q 317 0 293 0 q 291 0 291 6 q 291 12 293 12 q 330 12 342 26 q 353 39 353 81 l 353 235 q 353 293 332 320 q 310 348 265 348 q 236 348 206 334 q 176 319 152 294 l 152 81 q 152 39 164 26 q 176 12 213 12 q 216 12 216 6 q 216 0 213 0 q 188 0 174 1 l 119 2 l 62 1 q 48 0 24 0 q 22 0 22 6 q 22 12 24 12 q 61 12 72 26 q 84 39 84 81 l 84 595 q 84 631 78 646 q 71 662 54 662 q 36 662 10 649 l 8 649 q 5 649 3 654 q 1 659 4 660 l 138 725 l 141 725 q 145 725 148 722 q 152 719 152 715 l 152 313 q 225 397 306 397 q 361 397 391 365 q 421 333 421 274 l 421 81 q 421 39 433 26 q 445 12 482 12 q 485 12 485 6 q 485 0 482 0 z"},"z":{"x_min":0,"x_max":405,"ha":405,"o":"m 273 366 q 275 369 274 371 q 272 373 268 373 q 165 373 116 353 q 67 333 50 278 q 50 276 46 276 q 43 276 40 278 q 38 279 39 280 l 75 418 q 76 420 82 420 q 88 419 87 417 q 86 413 86 407 q 86 395 97 390 q 108 386 135 386 l 353 386 q 357 386 360 382 q 362 378 361 374 l 127 23 q 124 16 132 16 q 218 16 262 24 q 305 32 326 54 q 348 75 361 120 q 362 122 367 122 q 372 122 372 120 l 370 11 q 370 7 368 4 q 365 0 361 0 l 46 0 q 42 0 40 4 q 37 8 39 12 z"},"B":{"x_min":0,"x_max":570,"ha":570,"o":"m 519 183 q 519 130 492 88 q 464 45 416 20 q 369 -4 310 -4 q 278 -4 240 -1 q 226 0 207 1 q 188 2 164 2 l 94 1 q 75 0 43 0 q 40 0 40 6 q 40 12 43 12 q 78 12 94 18 q 111 23 118 37 q 125 51 125 81 l 125 544 q 125 574 118 588 q 112 602 96 608 q 79 613 44 613 q 42 613 42 619 q 42 625 44 625 l 94 624 q 138 622 164 622 q 191 622 223 625 q 234 626 250 627 q 265 628 283 628 q 369 628 414 592 q 459 557 459 497 q 459 449 428 410 q 397 372 341 352 q 421 345 470 298 q 519 251 519 183 z m 204 542 l 204 352 l 248 351 q 314 351 347 389 q 380 427 380 489 q 380 546 352 578 q 323 611 264 611 q 240 611 228 606 q 215 601 210 586 q 204 572 204 542 z m 434 159 q 434 235 392 281 q 350 327 273 328 q 246 329 204 326 l 204 81 q 204 56 211 42 q 218 29 237 22 q 256 16 294 16 q 365 16 400 53 q 434 90 434 159 z"},"K":{"x_min":0,"x_max":652,"ha":652,"o":"m 648 0 l 536 0 l 505 -1 q 491 -1 484 3 q 476 7 466 18 q 457 29 435 59 q 426 70 411 90 q 396 111 370 145 l 225 333 l 195 304 l 195 81 q 195 51 201 36 q 207 22 224 17 q 240 12 276 12 q 279 12 279 6 q 279 0 276 0 q 244 0 226 1 l 155 2 l 85 1 q 66 0 33 0 q 31 0 31 6 q 31 12 33 12 q 69 12 86 17 q 103 22 109 36 q 115 51 115 81 l 115 544 q 115 574 109 588 q 103 602 86 608 q 70 613 35 613 q 32 613 32 619 q 32 625 35 625 l 85 624 q 129 622 155 622 q 183 622 227 624 l 276 625 q 278 625 278 619 q 278 613 276 613 q 241 613 224 607 q 207 601 201 586 q 195 572 195 542 l 195 330 l 400 537 q 432 569 432 587 q 432 613 373 613 q 370 613 370 619 q 370 625 373 625 l 417 624 q 457 622 493 622 q 529 622 567 624 l 607 625 q 610 625 610 619 q 610 613 607 613 q 564 613 515 592 q 466 572 425 531 l 281 388 l 426 199 q 497 105 534 66 q 570 28 590 20 q 611 12 648 12 q 651 12 651 6 q 651 0 648 0 z"},"R":{"x_min":0,"x_max":681,"ha":681,"o":"m 691 0 l 546 0 q 522 0 456 86 q 389 171 297 320 q 274 315 253 315 q 234 315 204 317 l 204 81 q 204 51 210 36 q 216 22 232 17 q 249 12 285 12 q 288 12 288 6 q 288 0 285 0 q 254 0 236 1 l 164 2 l 94 1 q 75 0 43 0 q 40 0 40 6 q 40 12 43 12 q 79 12 96 17 q 113 22 119 36 q 125 51 125 81 l 125 544 q 125 574 119 588 q 113 602 96 608 q 80 613 44 613 q 42 613 42 619 q 42 625 44 625 l 94 624 q 138 622 164 622 q 182 622 198 623 q 214 624 226 625 q 259 628 288 628 q 373 628 419 594 q 465 561 465 502 q 465 455 437 413 q 409 371 364 345 q 448 218 504 146 q 561 75 605 44 q 649 12 691 12 q 693 12 693 6 q 693 0 691 0 z m 263 339 q 327 339 354 368 q 382 396 382 466 q 382 545 352 578 q 322 611 269 611 q 243 611 230 606 q 216 601 210 586 q 204 572 204 542 l 204 343 q 242 339 263 339 z"},"T":{"x_min":0,"x_max":637,"ha":637,"o":"m 50 460 q 49 458 44 458 q 38 458 38 460 q 42 489 47 552 q 52 615 52 647 q 52 652 58 652 q 64 652 64 647 q 64 625 119 625 q 204 622 320 622 q 379 622 445 624 l 513 625 q 550 625 567 630 q 584 635 589 650 q 590 654 596 654 q 601 654 601 650 q 598 622 594 560 q 591 498 591 460 q 591 458 586 458 q 580 458 580 460 q 573 537 540 571 q 507 605 442 605 q 405 605 389 600 q 373 596 367 584 q 361 571 361 542 l 361 81 q 361 50 368 36 q 374 22 393 17 q 412 12 454 12 q 456 12 456 6 q 456 0 454 0 q 419 0 399 1 l 320 2 l 243 1 q 223 0 187 0 q 184 0 184 6 q 184 12 187 12 q 228 12 247 17 q 266 22 273 36 q 280 51 280 81 l 280 544 q 280 572 274 584 q 268 597 252 601 q 236 605 199 605 q 137 605 102 570 q 67 536 50 460 z"},"P":{"x_min":0,"x_max":546,"ha":546,"o":"m 311 12 q 314 12 314 6 q 314 0 311 0 q 270 0 247 1 l 160 2 l 91 1 q 72 0 39 0 q 37 0 37 6 q 37 12 39 12 q 75 12 92 17 q 108 22 114 36 q 120 51 120 81 l 120 544 q 120 574 114 588 q 108 602 92 608 q 75 613 39 613 q 37 613 37 619 q 37 625 39 625 l 91 624 q 133 622 159 622 q 183 622 216 625 q 228 625 254 626 q 279 628 298 628 q 392 628 449 586 q 506 545 506 461 q 506 396 474 351 q 441 306 390 284 q 340 262 286 262 q 257 262 238 267 q 235 267 235 272 q 235 275 236 278 q 238 281 240 280 q 256 276 276 276 q 335 276 376 319 q 417 362 417 443 q 417 522 377 566 q 337 611 271 611 q 241 611 226 606 q 212 602 206 588 q 200 573 200 542 l 200 85 q 200 53 208 38 q 216 24 238 18 q 261 12 311 12 z"},"|":{"x_min":0,"x_max":168,"ha":168,"o":"m 65 731 q 65 738 86 738 q 106 738 106 731 l 106 -154 q 106 -158 100 -160 q 94 -162 86 -162 q 77 -162 71 -160 q 65 -158 65 -154 z"},"t":{"x_min":0,"x_max":338,"ha":338,"o":"m 315 58 q 319 58 321 54 q 323 49 320 47 q 283 16 252 2 q 221 -12 187 -12 q 145 -12 116 8 q 88 27 88 73 l 88 304 q 88 339 78 349 q 69 359 36 359 q 33 359 33 367 q 33 374 36 374 q 80 375 107 396 q 134 416 142 452 q 143 455 150 455 q 157 455 157 452 l 157 375 q 206 376 293 385 q 296 385 298 378 q 300 371 300 362 q 300 353 297 344 q 294 336 290 337 q 227 350 157 352 l 157 107 q 157 67 177 48 q 197 28 234 28 q 278 28 313 57 z"},"M":{"x_min":0,"x_max":842,"ha":842,"o":"m 819 0 q 787 0 768 1 l 697 2 l 630 1 q 613 0 583 0 q 580 0 580 6 q 580 12 583 12 q 627 12 642 22 q 658 32 658 64 l 657 81 l 638 521 l 417 7 q 415 3 409 3 q 403 3 401 7 l 152 517 l 144 115 q 143 62 163 37 q 183 12 228 12 q 231 12 231 6 q 231 0 228 0 q 201 0 186 1 l 131 2 l 76 1 q 62 0 35 0 q 33 0 33 6 q 33 12 35 12 q 118 12 119 115 l 128 563 q 96 613 42 613 q 40 613 40 619 q 40 625 42 625 l 82 624 q 94 623 113 623 q 135 623 149 624 q 163 625 171 625 q 184 625 192 616 q 200 607 217 573 l 439 122 l 648 600 q 658 625 678 625 q 684 625 694 624 q 704 623 720 623 l 771 624 q 783 625 806 625 q 809 625 809 619 q 809 613 806 613 q 757 613 736 597 q 714 581 715 541 l 737 81 q 739 50 745 36 q 751 22 767 17 q 783 12 819 12 q 821 12 821 6 q 821 0 819 0 z"},"g":{"x_min":0,"x_max":467,"ha":467,"o":"m 393 397 q 395 397 398 396 q 400 394 400 393 l 400 -70 q 400 -165 346 -223 q 292 -281 196 -281 q 134 -281 95 -260 q 56 -240 56 -206 q 56 -186 67 -176 q 78 -167 93 -167 q 111 -167 122 -176 q 133 -186 145 -206 q 163 -233 181 -246 q 199 -260 235 -260 q 280 -260 306 -224 q 332 -189 332 -94 l 332 67 q 297 31 260 10 q 224 -11 181 -11 q 119 -11 77 34 q 35 80 35 162 q 35 234 68 288 q 102 342 154 370 q 207 399 262 399 q 315 399 359 370 q 379 380 390 396 q 391 397 393 397 z m 332 84 l 332 292 q 332 329 304 354 q 276 379 237 379 q 181 379 147 327 q 113 275 113 193 q 113 118 142 74 q 170 29 220 29 q 273 29 332 84 z"},"j":{"x_min":0,"x_max":259,"ha":259,"o":"m 80 555 q 80 577 94 590 q 107 602 130 602 q 152 602 164 590 q 177 577 177 555 q 177 532 164 519 q 152 506 130 506 q 107 506 94 519 q 80 532 80 555 z m 171 267 l 171 -48 q 171 -116 157 -160 q 143 -203 110 -232 q 77 -261 19 -282 q 17 -283 14 -278 q 12 -272 14 -271 q 63 -250 83 -204 q 103 -158 103 -71 l 103 265 q 103 301 96 316 q 89 332 72 332 q 56 332 29 319 l 28 319 q 24 319 22 324 q 19 330 23 331 l 160 394 l 163 395 q 167 395 170 392 q 173 389 173 385 q 173 378 172 345 q 171 312 171 267 z"},"i":{"x_min":0,"x_max":270,"ha":270,"o":"m 87 555 q 87 577 100 590 q 114 602 137 602 q 159 602 172 590 q 184 577 184 555 q 184 532 172 519 q 159 506 137 506 q 114 506 100 519 q 87 532 87 555 z m 49 12 q 85 12 97 26 q 109 39 109 81 l 109 265 q 109 301 102 316 q 95 332 77 332 q 60 332 34 319 l 33 319 q 29 319 27 324 q 25 330 29 331 l 165 394 l 169 395 q 172 395 176 392 q 179 389 179 385 q 179 378 178 345 q 177 312 177 267 l 177 81 q 177 39 188 26 q 200 12 237 12 q 240 12 240 6 q 240 0 237 0 q 213 0 198 1 l 143 2 l 88 1 q 73 0 49 0 q 46 0 46 6 q 46 12 49 12 z"},"y":{"x_min":0,"x_max":489,"ha":489,"o":"m 417 385 l 417 -70 q 417 -165 364 -223 q 312 -281 213 -281 q 155 -281 115 -260 q 75 -238 75 -203 q 75 -186 86 -176 q 97 -167 113 -167 q 130 -167 141 -176 q 152 -186 165 -205 q 183 -231 202 -246 q 222 -260 257 -260 q 300 -260 324 -224 q 349 -189 349 -94 l 349 74 q 275 -9 192 -9 q 140 -9 112 24 q 83 56 83 114 l 83 265 q 83 303 76 320 q 69 336 53 336 q 38 336 21 328 l 19 328 q 16 328 14 333 q 13 338 16 339 l 135 394 l 138 395 q 142 395 146 392 q 151 389 151 385 l 151 152 q 151 95 172 68 q 192 40 234 40 q 263 40 294 54 q 324 68 349 93 l 349 265 q 349 303 342 320 q 335 336 319 336 q 305 336 288 328 l 286 328 q 283 328 282 333 q 280 338 283 339 l 401 394 l 405 395 q 409 395 413 392 q 417 389 417 385 z"},"@":{"x_min":0,"x_max":722,"ha":722,"o":"m 408 113 q 408 126 411 141 l 418 176 q 384 119 342 85 q 301 51 265 51 q 241 51 226 66 q 212 81 212 113 q 212 126 213 133 q 221 187 254 239 q 288 291 333 324 q 378 357 418 357 q 432 357 445 352 q 458 346 467 335 q 475 340 482 348 q 488 355 489 364 q 491 366 495 366 q 499 366 502 365 q 506 364 507 363 l 466 139 q 463 124 463 110 q 463 92 471 83 q 479 74 499 74 q 525 74 552 93 q 579 112 596 149 q 614 186 614 236 q 614 301 582 356 q 550 410 494 442 q 437 473 368 473 q 292 473 236 436 q 180 398 150 336 q 120 273 120 199 q 120 119 154 58 q 189 -2 252 -35 q 314 -68 396 -68 q 443 -68 480 -58 q 517 -47 562 -20 l 563 -20 q 565 -20 568 -24 q 570 -27 568 -28 q 479 -100 362 -100 q 280 -100 214 -67 q 148 -34 110 28 q 71 90 71 174 q 71 266 117 340 q 163 413 239 454 q 315 496 401 496 q 477 496 535 464 q 593 433 625 380 q 657 328 657 266 q 657 210 631 161 q 605 112 562 82 q 518 53 467 53 q 408 53 408 113 z m 436 272 q 438 284 438 289 q 438 309 428 322 q 419 334 401 334 q 376 334 350 312 q 324 289 304 252 q 284 214 277 172 q 274 153 274 137 q 274 98 299 98 q 323 98 352 124 q 380 150 404 190 q 427 231 436 272 z"},".":{"x_min":0,"x_max":200,"ha":200,"o":"m 52 38 q 52 60 65 72 q 78 85 101 85 q 124 85 136 72 q 149 60 149 38 q 149 15 136 2 q 124 -11 101 -11 q 79 -11 66 2 q 52 16 52 38 z"},"p":{"x_min":0,"x_max":511,"ha":511,"o":"m 475 215 q 475 138 442 86 q 408 35 358 11 q 308 -13 258 -13 q 229 -13 206 -8 q 184 -4 159 7 l 159 -194 q 159 -224 166 -238 q 173 -252 193 -258 q 213 -263 255 -263 q 258 -263 258 -269 q 258 -275 255 -275 q 220 -275 200 -274 l 125 -273 l 69 -274 q 55 -275 30 -275 q 27 -275 27 -269 q 27 -263 30 -263 q 56 -263 69 -258 q 82 -252 86 -238 q 91 -224 91 -194 l 91 274 q 91 308 83 324 q 75 339 56 339 q 37 339 5 324 l 4 324 q 0 324 -2 329 q -5 334 -1 335 l 120 393 l 126 395 q 138 395 148 375 q 157 355 159 320 q 238 399 320 399 q 362 399 398 377 q 433 355 454 313 q 475 271 475 215 z m 399 184 q 399 266 363 310 q 327 355 271 355 q 239 355 212 341 q 186 327 159 301 l 159 68 q 185 39 214 24 q 243 9 285 9 q 337 9 368 54 q 399 100 399 184 z"},"X":{"x_min":0,"x_max":650,"ha":650,"o":"m 638 0 q 611 0 595 1 l 539 2 l 461 1 q 442 0 410 0 q 408 0 408 6 q 408 12 410 12 q 433 12 444 16 q 455 20 455 29 q 455 38 446 51 l 299 276 l 185 114 q 157 76 157 49 q 157 12 213 12 q 216 12 216 6 q 216 0 213 0 q 182 0 166 1 l 96 2 l 51 1 q 39 0 13 0 q 10 0 10 6 q 10 12 13 12 q 46 12 84 38 q 121 65 160 117 l 289 292 l 128 538 q 101 579 76 596 q 51 613 18 613 q 16 613 16 619 q 16 625 18 625 l 58 624 q 84 622 97 622 q 131 622 181 624 l 234 625 q 237 625 237 619 q 237 613 234 613 q 211 613 200 609 q 189 605 189 595 q 189 587 198 573 l 340 356 l 446 506 q 477 551 477 576 q 477 613 422 613 q 419 613 419 619 q 419 625 422 625 l 468 624 q 508 622 539 622 q 557 622 583 624 l 621 625 q 624 625 624 619 q 624 613 621 613 q 588 613 549 585 q 510 557 471 502 l 351 339 l 519 83 q 545 44 572 28 q 599 12 638 12 q 640 12 640 6 q 640 0 638 0 z"},"*":{"x_min":0,"x_max":448,"ha":448,"o":"m 219 657 q 218 668 249 678 q 280 688 300 688 q 310 688 308 685 l 236 529 q 235 526 230 526 q 226 526 226 529 z m 79 544 q 69 547 69 582 q 69 604 72 623 q 76 642 80 638 l 207 520 q 209 519 208 514 q 206 510 204 511 z m 251 503 q 249 503 248 508 q 246 512 248 513 l 368 560 q 377 563 392 544 q 408 525 418 504 q 429 483 423 483 z m 133 373 q 121 373 100 380 q 80 388 66 396 q 51 405 55 407 l 206 491 l 208 492 q 210 492 212 489 q 215 486 214 485 l 144 377 q 141 373 133 373 z m 233 481 l 233 482 q 233 484 236 487 q 240 490 241 488 l 322 388 q 328 381 315 360 q 302 340 284 323 q 267 306 266 312 z"},"Y":{"x_min":0,"x_max":612,"ha":612,"o":"m 617 613 q 583 613 544 582 q 504 552 473 502 l 349 307 l 349 81 q 349 50 354 36 q 360 22 376 17 q 393 12 429 12 q 432 12 432 6 q 432 0 429 0 q 398 0 380 1 l 308 2 l 238 1 q 220 0 187 0 q 184 0 184 6 q 184 12 187 12 q 223 12 240 17 q 257 22 263 36 q 269 51 269 81 l 269 290 l 110 527 q 78 575 54 594 q 29 613 1 613 q -2 613 -2 619 q -2 625 1 625 q 12 625 36 623 l 69 622 q 102 622 160 624 l 218 625 q 220 625 220 619 q 220 613 218 613 q 171 613 171 589 q 171 578 182 561 l 336 331 l 448 508 q 472 547 472 572 q 472 592 458 602 q 444 613 417 613 q 414 613 414 619 q 414 625 417 625 l 466 624 q 506 622 539 622 q 556 622 580 624 l 617 625 q 619 625 619 619 q 619 613 617 613 z"},"c":{"x_min":0,"x_max":415,"ha":415,"o":"m 35 185 q 35 249 68 296 q 101 344 153 370 q 205 395 259 395 q 304 395 341 376 q 378 358 378 330 q 378 315 367 304 q 356 293 337 293 q 304 293 287 332 q 276 355 263 365 q 250 375 224 375 q 172 375 142 332 q 113 288 113 216 q 113 133 153 80 q 193 27 276 27 q 331 27 376 58 l 378 58 q 381 58 384 55 q 386 52 383 50 q 348 18 312 3 q 276 -12 232 -12 q 167 -12 122 16 q 78 45 56 90 q 35 135 35 185 z"},"!":{"x_min":0,"x_max":252,"ha":252,"o":"m 126 629 q 146 629 164 626 q 181 623 180 618 q 161 533 152 431 q 142 329 135 189 q 135 188 132 186 q 129 185 125 185 q 121 185 118 186 q 114 187 114 189 q 114 198 112 218 q 106 347 98 442 q 89 538 72 618 q 71 623 88 626 q 106 629 126 629 z m 72 38 q 72 60 85 72 q 98 85 121 85 q 144 85 156 72 q 169 60 169 38 q 169 15 156 2 q 144 -11 121 -11 q 99 -11 86 2 q 72 16 72 38 z"},"/":{"x_min":0,"x_max":344,"ha":344,"o":"m 26 -152 l 278 730 q 280 734 300 728 q 320 721 318 717 l 67 -164 q 66 -168 46 -162 q 25 -156 26 -152 z"},"[":{"x_min":0,"x_max":274,"ha":274,"o":"m 82 715 q 82 722 84 724 q 85 725 91 725 l 236 725 q 239 725 239 719 q 239 713 236 713 q 200 713 182 707 q 165 701 159 686 q 153 672 153 642 l 153 -34 q 153 -64 159 -78 q 165 -93 182 -99 q 200 -105 236 -105 q 239 -105 239 -111 q 239 -117 236 -117 l 91 -117 q 85 -117 84 -115 q 82 -113 82 -106 z"},"6":{"x_min":0,"x_max":492,"ha":492,"o":"m 448 175 q 448 122 422 79 q 397 36 352 12 q 308 -13 252 -13 q 158 -13 108 52 q 58 117 58 227 q 58 325 97 418 q 136 510 209 570 q 282 631 379 636 q 383 636 384 632 q 385 627 382 626 q 304 607 250 549 q 195 491 168 410 q 140 328 140 240 q 140 140 174 74 q 209 7 276 7 q 322 7 344 44 q 366 81 366 148 q 366 224 340 266 q 313 308 265 308 q 223 308 190 278 q 189 277 187 277 q 184 277 182 280 q 179 284 180 286 q 201 313 232 326 q 262 340 297 340 q 343 340 377 318 q 411 296 430 258 q 448 220 448 175 z"},"r":{"x_min":0,"x_max":369,"ha":369,"o":"m 346 349 q 346 334 336 324 q 326 313 309 313 q 299 313 292 316 q 285 320 280 324 q 275 329 273 330 q 265 338 258 342 q 250 347 239 347 q 227 347 213 338 q 199 328 171 296 l 171 81 q 171 52 178 38 q 186 23 206 18 q 226 12 266 12 q 269 12 269 6 q 269 0 266 0 q 233 0 213 1 l 137 2 l 81 1 q 67 0 43 0 q 40 0 40 6 q 40 12 43 12 q 79 12 90 26 q 102 39 102 81 l 102 276 q 102 309 94 324 q 87 338 69 338 q 50 338 16 324 l 14 324 q 11 324 10 329 q 8 334 11 335 l 135 394 q 137 395 141 395 q 151 395 160 373 q 170 351 171 315 q 212 361 236 378 q 261 395 283 395 q 306 395 326 382 q 346 368 346 349 z"},"2":{"x_min":0,"x_max":446,"ha":446,"o":"m 30 18 l 77 76 q 154 172 196 230 q 238 288 265 347 q 292 406 292 462 q 292 523 262 555 q 232 587 179 587 q 130 587 96 560 q 63 533 48 484 q 48 483 44 483 q 36 483 37 487 q 50 557 98 596 q 145 636 216 636 q 289 636 330 594 q 372 553 372 486 q 372 430 343 372 q 314 313 274 264 q 235 216 176 152 q 124 96 106 73 q 100 66 110 66 q 232 66 285 70 q 338 74 358 88 q 379 103 380 136 q 380 138 386 138 q 392 138 392 136 l 391 11 q 391 7 388 4 q 386 0 382 0 l 40 0 q 35 0 30 7 q 26 14 30 18 z"},"{":{"x_min":0,"x_max":289,"ha":289,"o":"m 32 311 q 76 317 90 376 q 105 435 105 529 q 105 615 116 656 q 128 696 158 710 q 187 725 250 725 q 254 725 254 719 q 254 713 250 713 q 217 713 200 686 q 182 658 180 607 q 178 484 172 434 q 166 385 144 356 q 123 328 69 305 q 122 281 144 252 q 166 222 172 172 q 178 123 180 1 q 182 -50 200 -78 q 217 -105 250 -105 q 254 -105 254 -111 q 254 -117 250 -117 q 187 -117 157 -102 q 127 -88 116 -47 q 105 -6 105 80 q 105 175 90 234 q 76 292 32 298 q 29 298 29 304 q 29 311 32 311 z"},"9":{"x_min":0,"x_max":489,"ha":489,"o":"m 44 457 q 44 510 70 550 q 95 591 140 614 q 184 636 240 636 q 334 636 384 571 q 433 506 433 396 q 433 298 394 206 q 354 114 280 54 q 206 -6 107 -12 q 104 -13 102 -8 q 101 -2 105 -1 q 185 17 240 75 q 296 133 324 214 q 352 295 352 383 q 352 483 317 550 q 282 617 216 617 q 169 617 147 581 q 125 545 125 481 q 125 403 154 359 q 184 315 234 315 q 269 315 302 342 q 303 343 305 343 q 308 343 310 340 q 313 336 311 334 q 291 311 262 298 q 234 286 200 286 q 128 286 86 335 q 44 384 44 457 z"}," ":{"x_min":0,"x_max":234,"ha":234,"o":""},"I":{"x_min":0,"x_max":335,"ha":335,"o":"m 289 12 q 291 12 291 6 q 291 0 289 0 q 257 0 239 1 l 167 2 l 97 1 q 78 0 45 0 q 43 0 43 6 q 43 12 45 12 q 81 12 98 17 q 115 22 121 36 q 127 51 127 81 l 127 544 q 127 574 121 588 q 115 602 98 608 q 81 613 45 613 q 43 613 43 619 q 43 625 45 625 l 97 624 q 141 622 167 622 q 196 622 240 624 l 289 625 q 291 625 291 619 q 291 613 289 613 q 254 613 237 607 q 220 601 214 586 q 208 572 208 542 l 208 81 q 208 51 214 36 q 220 22 236 17 q 253 12 289 12 z"},"H":{"x_min":0,"x_max":761,"ha":761,"o":"m 725 0 q 693 0 674 1 l 602 2 l 523 1 q 506 0 476 0 q 473 0 473 6 q 473 12 476 12 q 514 12 532 17 q 550 22 556 36 q 562 51 562 81 l 562 314 l 198 314 l 198 81 q 198 51 204 36 q 210 22 228 17 q 246 12 284 12 q 286 12 286 6 q 286 0 284 0 q 252 0 233 1 l 156 2 l 85 1 q 66 0 33 0 q 31 0 31 6 q 31 12 33 12 q 70 12 88 17 q 105 22 112 36 q 118 51 118 81 l 118 544 q 118 574 112 588 q 106 602 89 608 q 72 613 35 613 q 32 613 32 619 q 32 625 35 625 l 86 624 q 128 622 156 622 q 188 622 234 624 l 284 625 q 286 625 286 619 q 286 613 284 613 q 247 613 229 607 q 211 601 204 586 q 198 572 198 542 l 198 337 l 562 337 l 562 542 q 562 572 556 586 q 549 601 532 607 q 514 613 476 613 q 473 613 473 619 q 473 625 476 625 l 523 624 q 569 622 602 622 q 630 622 674 624 l 725 625 q 728 625 728 619 q 728 613 725 613 q 688 613 671 608 q 654 602 648 588 q 641 574 641 544 l 641 81 q 641 51 648 36 q 654 22 671 17 q 688 12 725 12 q 728 12 728 6 q 728 0 725 0 z"},"4":{"x_min":0,"x_max":471,"ha":471,"o":"m 422 198 q 422 177 418 177 l 342 180 l 342 81 q 342 50 347 36 q 352 22 366 17 q 380 12 411 12 q 413 12 413 6 q 413 0 411 0 q 384 0 368 1 l 304 2 l 228 1 q 208 0 174 0 q 171 0 171 6 q 171 12 174 12 q 219 12 238 16 q 256 21 262 34 q 268 48 268 81 l 268 182 q 136 184 22 184 q 17 184 14 188 q 12 191 15 195 l 327 630 q 329 632 333 632 q 336 632 339 630 q 342 629 342 626 l 342 216 l 418 219 q 422 219 422 198 z m 268 215 l 268 507 l 68 220 q 64 213 73 213 q 156 213 268 215 z"},"~":{"x_min":0,"x_max":443,"ha":443,"o":"m 389 241 l 390 241 q 393 241 396 238 q 398 236 396 234 q 359 183 336 166 q 314 149 287 149 q 268 149 252 154 q 235 158 211 167 q 184 176 167 180 q 150 185 130 185 q 106 185 93 178 q 80 171 70 160 q 59 150 55 146 l 54 146 q 52 146 50 148 q 47 151 48 153 q 106 238 164 238 q 178 238 196 233 q 213 228 230 222 q 255 212 274 207 q 294 202 314 202 q 342 202 357 212 q 372 222 389 241 z"},"D":{"x_min":0,"x_max":696,"ha":696,"o":"m 241 -1 q 226 0 204 1 q 182 2 155 2 l 85 1 q 66 0 33 0 q 31 0 31 6 q 31 12 33 12 q 69 12 86 17 q 103 22 109 36 q 115 51 115 81 l 115 544 q 115 574 109 588 q 103 602 86 608 q 70 613 35 613 q 32 613 32 619 q 32 625 35 625 l 85 624 q 129 622 155 622 q 193 622 232 625 q 280 627 296 627 q 399 627 479 587 q 559 547 603 478 q 647 409 647 323 q 647 226 602 152 q 556 77 479 36 q 402 -4 310 -4 q 280 -4 241 -1 z m 555 301 q 555 388 524 458 q 494 529 438 570 q 381 610 306 610 q 263 610 240 605 q 217 600 206 586 q 195 571 195 542 l 195 92 q 195 49 216 32 q 238 14 300 14 q 375 14 432 48 q 490 81 522 146 q 555 210 555 301 z"},"^":{"x_min":0,"x_max":392,"ha":392,"o":"m 333 379 q 333 377 329 375 q 325 373 324 375 l 196 535 l 68 375 q 67 374 65 374 q 63 374 60 376 q 57 379 58 380 l 185 629 q 186 634 196 634 q 206 634 207 629 l 333 380 z"},"0":{"x_min":0,"x_max":501,"ha":501,"o":"m 44 313 q 44 410 70 484 q 96 557 143 597 q 190 637 253 637 q 314 637 360 596 q 406 556 431 482 q 456 408 456 310 q 456 213 431 140 q 406 67 360 27 q 313 -13 251 -13 q 189 -13 142 27 q 95 67 70 141 q 44 215 44 313 z m 371 298 q 371 460 336 540 q 302 621 242 621 q 186 621 158 543 q 129 465 129 320 q 129 167 164 85 q 198 3 263 3 q 371 3 371 298 z"},"F":{"x_min":0,"x_max":513,"ha":513,"o":"m 463 490 q 463 487 458 486 q 452 486 451 489 q 444 544 412 572 q 380 601 328 601 l 277 601 q 234 601 218 589 q 203 577 203 543 l 203 325 l 295 325 q 349 325 374 343 q 400 361 400 397 q 400 399 406 399 q 412 399 412 397 l 411 313 q 411 283 412 268 l 413 218 q 413 216 407 216 q 401 216 401 218 q 401 261 375 282 q 349 302 292 302 l 203 302 l 203 85 q 203 53 212 38 q 220 24 244 18 q 268 12 320 12 q 322 12 322 6 q 322 0 320 0 q 279 0 256 1 l 162 2 l 92 1 q 73 0 39 0 q 37 0 37 6 q 37 12 39 12 q 76 12 94 17 q 111 22 117 36 q 123 51 123 81 l 123 544 q 123 574 117 588 q 111 602 94 608 q 78 613 43 613 q 40 613 40 619 q 40 625 43 625 l 451 625 q 461 625 461 616 z"},"`":{"x_min":0,"x_max":213,"ha":213,"o":"m 46 731 q 62 731 85 726 q 108 720 109 716 l 154 476 q 155 474 150 472 q 145 471 144 474 l 36 727 q 35 731 46 731 z"},"k":{"x_min":0,"x_max":491,"ha":491,"o":"m 488 0 q 463 0 449 1 l 393 2 l 320 1 q 304 0 276 0 q 273 0 273 6 q 273 12 276 12 q 321 12 321 32 q 321 41 312 53 l 193 214 l 152 180 l 152 81 q 152 39 164 26 q 176 12 213 12 q 216 12 216 6 q 216 0 213 0 q 188 0 174 1 l 119 2 l 62 1 q 48 0 24 0 q 22 0 22 6 q 22 12 24 12 q 61 12 72 26 q 84 39 84 81 l 84 595 q 84 631 78 646 q 71 662 54 662 q 36 662 10 649 l 8 649 q 5 649 3 654 q 1 659 4 660 l 136 724 l 141 725 q 145 725 148 722 q 152 719 152 715 l 152 198 l 273 302 q 303 328 303 347 q 303 359 290 366 q 277 374 252 374 q 250 374 250 380 q 250 386 252 386 q 280 386 296 385 l 370 384 l 438 385 q 452 386 476 386 q 478 386 478 380 q 478 374 476 374 q 437 374 388 355 q 340 336 295 298 l 244 256 l 374 81 q 425 12 488 12 q 490 12 490 6 q 490 0 488 0 z"},"u":{"x_min":0,"x_max":497,"ha":497,"o":"m 490 60 q 494 60 496 56 q 498 51 495 49 l 371 -10 q 369 -11 366 -11 q 357 -11 348 12 q 339 36 339 74 q 265 -9 185 -9 q 134 -9 104 24 q 75 56 75 114 l 75 265 q 75 303 68 320 q 61 336 45 336 q 31 336 14 328 l 12 328 q 9 328 8 333 q 6 338 9 339 l 127 394 l 131 395 q 135 395 139 392 q 143 389 143 385 l 143 152 q 143 39 227 39 q 255 39 285 53 q 315 67 339 92 l 339 265 q 339 303 332 320 q 325 336 309 336 q 296 336 277 328 l 275 328 q 272 328 271 333 q 270 338 273 339 l 391 394 l 395 395 q 399 395 403 392 q 407 389 407 385 l 407 110 q 407 76 414 61 q 422 46 440 46 q 456 46 489 60 z"},"]":{"x_min":0,"x_max":274,"ha":274,"o":"m 183 -117 l 38 -117 q 35 -117 35 -111 q 35 -105 38 -105 q 74 -105 92 -99 q 109 -93 115 -78 q 121 -64 121 -34 l 121 642 q 121 672 115 686 q 109 701 92 707 q 74 713 38 713 q 35 713 35 719 q 35 725 38 725 l 183 725 q 189 725 190 724 q 192 722 192 715 l 192 -106 q 192 -113 190 -115 q 189 -117 183 -117 z"},"U":{"x_min":0,"x_max":761,"ha":761,"o":"m 726 0 l 644 1 l 586 0 q 574 0 570 3 q 567 6 567 19 l 567 93 q 508 38 452 13 q 395 -12 329 -12 q 265 -12 214 12 q 163 36 134 81 q 104 126 104 186 l 104 544 q 104 574 98 588 q 92 602 76 608 q 59 613 23 613 q 20 613 20 619 q 20 625 23 625 l 73 624 q 117 622 143 622 q 172 622 216 624 l 264 625 q 267 625 267 619 q 267 613 264 613 q 229 613 212 607 q 195 601 189 586 q 183 572 183 542 l 183 221 q 183 123 231 72 q 279 20 361 20 q 415 20 464 42 q 512 65 567 116 l 567 542 q 567 572 561 586 q 555 601 538 607 q 522 613 486 613 q 484 613 484 619 q 484 625 486 625 l 536 624 q 580 622 606 622 q 633 622 675 624 l 726 625 q 729 625 729 619 q 729 613 726 613 q 690 613 673 608 q 656 602 650 588 q 644 574 644 544 l 644 81 q 644 51 650 36 q 656 22 673 17 q 690 12 726 12 q 729 12 729 6 q 729 0 726 0 z"},"o":{"x_min":0,"x_max":482,"ha":482,"o":"m 35 198 q 35 263 67 308 q 99 354 149 376 q 199 399 251 399 q 310 399 355 370 q 400 341 424 294 q 448 246 448 193 q 448 132 418 85 q 389 38 340 12 q 291 -13 233 -13 q 174 -13 129 16 q 84 44 60 92 q 35 141 35 198 z m 366 162 q 366 227 346 276 q 327 326 293 352 q 259 379 217 379 q 168 379 142 342 q 115 304 115 231 q 115 168 134 116 q 153 65 186 36 q 220 6 262 6 q 312 6 339 45 q 366 84 366 162 z"},"N":{"x_min":0,"x_max":730,"ha":730,"o":"m 710 613 q 628 613 628 509 l 628 -13 q 628 -15 624 -16 q 619 -17 617 -15 l 148 541 l 148 115 q 148 62 168 37 q 187 12 227 12 q 230 12 230 6 q 230 0 227 0 q 201 0 187 1 l 136 2 l 82 1 q 67 0 38 0 q 36 0 36 6 q 36 12 38 12 q 81 12 102 37 q 122 62 122 115 l 122 569 q 78 613 35 613 q 32 613 32 619 q 32 625 35 625 l 74 624 q 86 623 108 623 l 160 624 q 169 625 183 625 q 191 625 194 622 q 198 618 206 606 q 215 592 231 573 l 603 124 l 603 509 q 603 562 584 588 q 565 613 525 613 q 523 613 523 619 q 523 625 525 625 l 565 624 q 595 622 616 622 q 634 622 668 624 l 710 625 q 713 625 713 619 q 713 613 710 613 z"},"+":{"x_min":0,"x_max":398,"ha":398,"o":"m 369 190 q 369 182 368 175 q 366 168 364 168 l 220 168 l 220 25 q 220 23 212 22 q 204 20 195 20 q 177 20 177 23 l 177 168 l 34 168 q 32 168 30 176 q 29 183 29 191 q 29 198 30 204 q 32 211 33 211 l 177 211 l 177 354 q 177 356 184 358 q 191 359 199 359 q 207 359 214 358 q 220 356 220 354 l 220 211 l 364 211 q 366 211 368 204 q 369 198 369 190 z"},"G":{"x_min":0,"x_max":716,"ha":716,"o":"m 49 305 q 49 402 98 477 q 148 552 234 594 q 321 636 429 636 q 477 636 522 627 q 568 618 597 603 q 605 598 607 594 q 609 590 610 580 l 623 459 q 623 456 618 456 q 612 455 611 458 q 585 532 526 572 q 467 612 384 612 q 266 612 202 540 q 138 468 138 342 q 138 244 176 168 q 214 91 280 48 q 347 5 431 5 q 479 5 505 14 q 531 23 543 49 q 555 75 555 126 q 555 178 548 198 q 542 219 520 226 q 499 233 446 233 q 440 233 440 241 q 440 244 442 246 q 443 249 445 249 q 525 244 575 244 q 622 244 675 247 q 677 247 678 244 q 680 242 680 240 q 680 233 675 233 q 653 234 644 226 q 635 219 632 196 q 630 173 630 116 q 630 71 634 52 q 637 33 637 28 q 637 22 634 20 q 632 19 625 16 q 502 -12 406 -12 q 297 -12 216 30 q 135 72 92 144 q 49 216 49 305 z"},"q":{"x_min":0,"x_max":492,"ha":492,"o":"m 479 -275 q 453 -275 439 -274 l 383 -273 l 319 -274 q 302 -275 271 -275 q 269 -275 269 -269 q 269 -263 271 -263 q 305 -263 322 -258 q 338 -252 344 -238 q 350 -224 350 -194 l 350 67 q 315 31 278 9 q 241 -13 194 -13 q 151 -13 114 8 q 78 30 56 72 q 35 114 35 172 q 35 248 67 299 q 99 350 149 374 q 199 399 254 399 q 325 399 390 362 l 462 388 l 464 389 q 467 389 468 384 q 469 380 466 379 q 441 365 429 346 q 417 326 417 295 l 417 -194 q 417 -224 422 -238 q 426 -252 439 -258 q 452 -263 479 -263 q 481 -263 481 -269 q 481 -275 479 -275 z m 350 84 l 350 267 q 350 320 314 350 q 278 379 227 379 q 113 379 113 207 q 113 120 145 73 q 177 26 232 26 q 286 26 350 84 z"},"d":{"x_min":0,"x_max":512,"ha":512,"o":"m 506 60 q 509 60 511 55 q 513 50 510 48 l 391 -9 q 385 -11 384 -11 q 372 -11 363 10 q 354 31 353 68 q 317 31 278 9 q 239 -13 191 -13 q 149 -13 113 10 q 77 34 56 78 q 35 122 35 179 q 35 252 70 302 q 105 351 158 375 q 210 399 263 399 q 309 399 353 378 l 353 594 q 353 631 346 646 q 339 662 321 662 q 308 662 278 648 l 277 648 q 273 648 271 653 q 269 658 272 660 l 405 724 q 407 725 410 725 q 413 725 418 722 q 422 719 422 715 l 422 112 q 422 77 430 62 q 437 46 455 46 q 478 46 504 59 z m 353 86 l 353 315 q 332 345 304 361 q 277 377 240 377 q 180 377 146 335 q 112 293 112 210 q 112 126 146 76 q 181 27 235 27 q 269 27 297 42 q 325 58 353 86 z"},"1":{"x_min":0,"x_max":391,"ha":391,"o":"m 62 12 q 108 12 130 18 q 153 23 162 37 q 172 51 172 81 l 172 474 q 172 534 143 534 q 120 534 60 491 l 58 490 q 54 490 52 494 q 50 499 53 501 l 232 632 q 236 635 239 635 q 241 635 243 633 q 245 631 245 628 l 245 81 q 245 51 254 36 q 262 22 284 17 q 307 12 355 12 q 357 12 357 6 q 357 0 355 0 q 317 0 294 1 l 209 2 l 124 1 q 101 0 62 0 q 60 0 60 6 q 60 12 62 12 z"},"5":{"x_min":0,"x_max":447,"ha":447,"o":"m 400 188 q 400 93 344 40 q 289 -12 202 -12 q 155 -12 118 6 q 81 25 49 63 l 48 65 q 48 69 52 72 q 56 74 58 71 q 80 45 112 32 q 145 20 181 20 q 250 20 284 63 q 318 106 318 177 q 318 254 280 300 q 242 346 166 346 q 124 346 80 333 q 75 333 72 336 q 69 340 70 345 l 102 613 q 103 620 105 622 q 107 625 115 625 q 250 625 294 626 q 339 628 353 633 q 367 638 375 654 q 376 656 381 656 q 386 655 385 651 l 371 570 q 369 558 364 555 q 358 552 345 552 l 138 557 q 125 557 122 543 l 100 360 q 158 377 208 377 q 298 377 349 328 q 400 279 400 188 z"}}}
